<?xml version="1.0" encoding="UTF-8"?>
<svg version="1.1" xmlns="http://www.w3.org/2000/svg" width="256" height="256">
<path d="M0 0 C0.99 0.33 1.98 0.66 3 1 C2.30317001 8.0269058 0.19867952 14.61962486 -1.7734375 21.37890625 C-2.52634506 24.01638647 -3.27258113 26.65574911 -4.01953125 29.29492188 C-5.19501847 33.4431011 -6.37916053 37.58816071 -7.59619141 41.72436523 C-8.58384932 45.08384972 -9.54103142 48.45072517 -10.47841263 51.82456779 C-11.01499358 53.72401554 -11.58360898 55.61431955 -12.15267944 57.50428772 C-13.03445437 60.72101103 -13.79079547 63.67083392 -14 67 C-11.87361579 70.34486247 -11.87361579 70.34486247 -9 73 C-8.12170248 75.92484686 -7.90117575 78.83720011 -7.6875 81.875 C-7.61466797 82.65875 -7.54183594 83.4425 -7.46679688 84.25 C-7.29164636 86.16497897 -7.14307575 88.08235783 -7 90 C-6.39500671 89.82016571 -5.79001343 89.64033142 -5.16668701 89.45504761 C1.12226288 87.58875572 7.41693058 85.74282676 13.71533203 83.90869141 C16.06615058 83.22120931 18.41545349 82.52852258 20.76318359 81.83056641 C24.13515907 80.82908827 27.5121155 79.84636216 30.890625 78.8671875 C31.94179504 78.55063202 32.99296509 78.23407654 34.07598877 77.90792847 C35.05670349 77.62748688 36.03741821 77.34704529 37.04785156 77.05810547 C37.90944885 76.80495575 38.77104614 76.55180603 39.65875244 76.29098511 C42.44412621 75.94480118 43.66071581 76.52469774 46 78 C44.6646524 82.0060428 42.00657206 83.55670898 38.75 86 C33.81383741 89.78460281 28.97440994 93.64125202 24.25 97.6875 C19.67455464 101.59826685 15.04066934 105.41832369 10.31640625 109.1484375 C9.55199219 109.75945312 8.78757813 110.37046875 8 111 C6.95199219 111.71542969 5.90398437 112.43085938 4.82421875 113.16796875 C1.08145008 116.92109086 0.79335884 119.81738789 0.25 124.9375 C-0.1323754 127.96422478 -0.55169432 130.98239524 -1 134 C-1.22429687 135.67255859 -1.22429687 135.67255859 -1.453125 137.37890625 C-3.64759104 141.09730705 -6.04768143 141.23244581 -10.08377075 142.34959412 C-15.05181403 143.45761557 -20.01013466 143.84671485 -25.08203125 144.171875 C-26.24354202 144.25145447 -27.4050528 144.33103394 -28.60176086 144.4130249 C-41.89451997 145.24001899 -55.18927029 145.30458922 -68.50170898 145.26074219 C-72.01881031 145.24922521 -75.53561307 145.25621203 -79.05270481 145.26761913 C-123.19077599 145.3893651 -123.19077599 145.3893651 -133.75 136.75 C-134.4925 135.8425 -135.235 134.935 -136 134 C-136.57492188 133.40058594 -137.14984375 132.80117187 -137.7421875 132.18359375 C-142.34910412 127.2994975 -146.03040685 122.59903612 -145.984375 115.63671875 C-145.62424368 111.96938152 -144.89547676 108.58190704 -144 105 C-155.55 99.06 -167.1 93.12 -179 87 C-178.67 85.68 -178.34 84.36 -178 83 C-177.23558594 83.05534912 -176.47117188 83.11069824 -175.68359375 83.16772461 C-174.07677734 83.28386108 -174.07677734 83.28386108 -172.4375 83.40234375 C-171.25478516 83.48806641 -170.07207031 83.57378906 -168.85351562 83.66210938 C-166.27959756 83.84605385 -163.70537067 84.02572562 -161.13085938 84.20117188 C-150.13162705 84.95454395 -150.13162705 84.95454395 -144.71875 85.56640625 C-143.98785156 85.64060791 -143.25695312 85.71480957 -142.50390625 85.79125977 C-140.63573556 85.98586088 -138.7707632 86.21051578 -136.90625 86.4375 C-133.72993178 86.27019437 -133.72993178 86.27019437 -131.53125 83.3125 C-129.81650671 80.21522615 -129.81650671 80.21522615 -130.0078125 77.40234375 C-131.20833288 74.49557196 -132.67986342 72.81622564 -134.875 70.5625 C-139.34023639 65.81818634 -143.34433047 60.83628211 -147.28076172 55.64672852 C-149.38983899 52.89999635 -151.09082588 50.93944941 -154 49 C-153.67 48.01 -153.34 47.02 -153 46 C-149.18260043 46.70645363 -146.13001664 48.40360854 -142.73046875 50.23828125 C-142.131241 50.56032028 -141.53201324 50.88235931 -140.91462708 51.2141571 C-139.00331785 52.24279547 -137.0954518 53.27765009 -135.1875 54.3125 C-133.91622444 54.99713267 -132.644742 55.68138135 -131.37304688 56.36523438 C-121.67121721 61.59381388 -121.67121721 61.59381388 -119.12219238 63.13635254 C-115.49196858 65.53930281 -115.49196858 65.53930281 -111.3203125 65.4296875 C-109.10392505 64.06403463 -106.97379472 62.66518016 -104.875 61.125 C-89.37303641 50.71436759 -68.14683202 49.75327108 -50 51 C-49.15324707 51.17354004 -48.30649414 51.34708008 -47.43408203 51.52587891 C-44.79115607 52.03430661 -42.67500285 52.32930005 -40 52 C-36.94471982 49.80035209 -35.07450444 46.98185239 -33 43.875 C-32.10474609 42.63073242 -32.10474609 42.63073242 -31.19140625 41.36132812 C-29.98936704 39.69010587 -28.80029255 38.00947484 -27.625 36.31933594 C-25.50929336 33.29962244 -23.27041861 30.4052396 -21 27.5 C-20.2265625 26.49195312 -19.453125 25.48390625 -18.65625 24.4453125 C-16.56273797 21.72341873 -14.45486919 19.01294564 -12.34375 16.3046875 C-11.70824219 15.48935547 -11.07273438 14.67402344 -10.41796875 13.83398438 C-9.16109485 12.22257476 -7.90331499 10.61187128 -6.64453125 9.00195312 C-5.78408203 7.89883789 -5.78408203 7.89883789 -4.90625 6.7734375 C-4.39384766 6.11778809 -3.88144531 5.46213867 -3.35351562 4.78662109 C-2.17709844 3.23376738 -1.08064255 1.62096383 0 0 Z M-101 91 C-100 94 -100 94 -100 94 Z M-102 94 C-102.83719383 96.29032311 -103.6698929 98.58210957 -104.5 100.875 C-104.85771484 101.85146484 -104.85771484 101.85146484 -105.22265625 102.84765625 C-106.54877533 106.33457589 -106.54877533 106.33457589 -107 110 C-107.66 110 -108.32 110 -109 110 C-110.44074715 108.217871 -111.80510649 106.37339724 -113.125 104.5 C-113.84945312 103.4790625 -114.57390625 102.458125 -115.3203125 101.40625 C-115.87460938 100.6121875 -116.42890625 99.818125 -117 99 C-117.12181641 99.92039062 -117.12181641 99.92039062 -117.24609375 100.859375 C-118 103 -118 103 -119.84765625 104.265625 C-120.57855469 104.59046875 -121.30945313 104.9153125 -122.0625 105.25 C-122.79597656 105.58515625 -123.52945313 105.9203125 -124.28515625 106.265625 C-125.13400391 106.62914062 -125.13400391 106.62914062 -126 107 C-126 107.33 -126 107.66 -126 108 C-122.37 108 -118.74 108 -115 108 C-115.56626056 114.45537042 -116.68276571 120.70920206 -118.0715332 127.03344727 C-118.42195452 128.68078656 -118.71625439 130.33987643 -119 132 C-117.16368018 133.83631982 -114.21099841 133.33730663 -111.73608398 133.48071289 C-111.08244873 133.5198732 -110.42881348 133.55903351 -109.75537109 133.59938049 C-107.58584781 133.72824702 -105.41600232 133.85046354 -103.24609375 133.97265625 C-101.7453425 134.0605004 -100.24461535 134.14875718 -98.74391174 134.2374115 C-94.78706649 134.47004465 -90.82991735 134.69704929 -86.87268066 134.9229126 C-82.83744936 135.15421677 -78.80252817 135.39080213 -74.76757812 135.62695312 C-66.84534722 136.08982653 -58.92278778 136.54675869 -51 137 C-52.32 136.34 -53.64 135.68 -55 135 C-50.52975671 127.85304569 -45.89706361 120.86184293 -41 114 C-44.34703844 114 -45.15216064 114.51090128 -47.87109375 116.30078125 C-48.61037109 116.78353516 -49.34964844 117.26628906 -50.11132812 117.76367188 C-50.87896484 118.27478516 -51.64660156 118.78589844 -52.4375 119.3125 C-53.20126953 119.81201172 -53.96503906 120.31152344 -54.75195312 120.82617188 C-58.99091912 123.56898511 -58.99091912 123.56898511 -62.90869141 126.734375 C-65 128 -65 128 -67.57397461 127.78393555 C-68.52796143 127.508479 -69.48194824 127.23302246 -70.46484375 126.94921875 C-71.52558105 126.64806152 -72.58631836 126.3469043 -73.67919922 126.03662109 C-79.00275427 124.37482027 -84.29191591 122.63528487 -89.5625 120.8125 C-91.66654053 120.08569592 -93.77195093 119.36284176 -95.87890625 118.64453125 C-96.7922876 118.32846924 -97.70566895 118.01240723 -98.64672852 117.68676758 C-101.07140565 116.85992543 -101.07140565 116.85992543 -104 117 C-103.7834375 115.75863281 -103.566875 114.51726562 -103.34375 113.23828125 C-103.06228316 111.59639133 -102.78104518 109.95446215 -102.5 108.3125 C-102.28537109 107.08756836 -102.28537109 107.08756836 -102.06640625 105.83789062 C-101.38834038 101.85021752 -100.80141608 98.06269596 -101 94 C-101.33 94 -101.66 94 -102 94 Z " fill="#FFFFFF" transform="translate(195,56)"/>
<path d="M0 0 C5.44545616 1.69612569 10.63474207 3.89157682 15.875 6.125 C16.75414063 6.49753906 17.63328125 6.87007812 18.5390625 7.25390625 C20.69358227 8.16723528 22.84719024 9.08264932 25 10 C24.67 10.99 24.34 11.98 24 13 C6.47776304 13.25071563 6.47776304 13.25071563 0 12 C-0.66 11.34 -1.32 10.68 -2 10 C-1.7578125 7.6171875 -1.7578125 7.6171875 -1.125 4.875 C-0.92132813 3.96492187 -0.71765625 3.05484375 -0.5078125 2.1171875 C-0.34023437 1.41851562 -0.17265625 0.71984375 0 0 Z " fill="#FFFFFF" transform="translate(80,175)"/>
</svg>
